<?xml version="1.0" encoding="UTF-8"?><svg id="uuid-8a90e625-11df-41bc-a055-dce762397402" xmlns="http://www.w3.org/2000/svg" viewBox="0 0 149.8 153.1"><defs><style>.uuid-6730677f-eebf-4791-9b02-2b15a8b70176{fill:#191930;}</style></defs><path class="uuid-6730677f-eebf-4791-9b02-2b15a8b70176" d="m76.7,23.8c0-.4,4.2-22.7,4.3-23.1C34.1-3.9-2,39.4,4.2,86.2l24.4-6.2c-1.8-30.7,19-56.5,48.1-56.2Z"/><path class="uuid-6730677f-eebf-4791-9b02-2b15a8b70176" d="m121.3,47.9l17.6-12.1C127.6,16.2,108.2,3.9,85.8,1.2l-4.3,23c17.1,1.8,29.8,9.3,39.8,23.7Z"/><path class="uuid-6730677f-eebf-4791-9b02-2b15a8b70176" d="m146.1,73.4c-10.4,0-31.7,0-41.9,0v21h16.9c-13.5,49.9-86.6,40.4-91.7-9.7h0s-24.6,6.3-24.6,6.3c17.8,89,147.3,80.5,141.2-17.6Z"/></svg>
